<svg width="1600" height="320" viewBox="0 0 1600 320" fill="none" xmlns="http://www.w3.org/2000/svg">
  <defs>
    <linearGradient id="repoOverviewBg" x1="0" y1="0" x2="1600" y2="320" gradientUnits="userSpaceOnUse">
      <stop offset="0" stop-color="#06111F"/>
      <stop offset="1" stop-color="#120A1F"/>
    </linearGradient>
  </defs>
  <rect width="1600" height="320" rx="28" fill="url(#repoOverviewBg)"/>
  <text x="38" y="46" fill="#8BE9FF" font-family="'Segoe UI', Arial, sans-serif" font-size="18" font-weight="700" letter-spacing="3">PUBLIC REPO OVERVIEW</text>
  <text x="38" y="68" fill="#9BB7E7" font-family="Consolas, 'Courier New', monospace" font-size="14">Counts below come from public repository metadata, not vanity profile metrics.</text>
  
  <g>
    <rect x="36" y="76" width="350" height="188" rx="24" fill="#0A1326" fill-opacity="0.84" stroke="#00D9FF" stroke-opacity="0.42"/>
    <path d="M74 110H148L168 130L148 150H74L54 130L74 110Z" fill="#111D35" stroke="#00D9FF" stroke-opacity="0.56"/>
    <text x="111" y="139" fill="#F5F7FF" font-family="'Segoe UI', Arial, sans-serif" font-size="26" font-weight="800" text-anchor="middle">10</text>
    <text x="186" y="126" fill="#00D9FF" font-family="'Segoe UI', Arial, sans-serif" font-size="16" font-weight="700">PUBLIC REPOS</text>
    <text x="186" y="152" fill="#A4C0EA" font-family="Consolas, 'Courier New', monospace" font-size="17">visible repositories</text>
  </g>
  <g>
    <rect x="422" y="76" width="350" height="188" rx="24" fill="#0A1326" fill-opacity="0.84" stroke="#8B5CF6" stroke-opacity="0.42"/>
    <path d="M460 110H534L554 130L534 150H460L440 130L460 110Z" fill="#111D35" stroke="#8B5CF6" stroke-opacity="0.56"/>
    <text x="497" y="139" fill="#F5F7FF" font-family="'Segoe UI', Arial, sans-serif" font-size="26" font-weight="800" text-anchor="middle">9</text>
    <text x="572" y="126" fill="#8B5CF6" font-family="'Segoe UI', Arial, sans-serif" font-size="16" font-weight="700">ORIGINAL REPOS</text>
    <text x="572" y="152" fill="#A4C0EA" font-family="Consolas, 'Courier New', monospace" font-size="17">not forks</text>
  </g>
  <g>
    <rect x="808" y="76" width="350" height="188" rx="24" fill="#0A1326" fill-opacity="0.84" stroke="#14F195" stroke-opacity="0.42"/>
    <path d="M846 110H920L940 130L920 150H846L826 130L846 110Z" fill="#111D35" stroke="#14F195" stroke-opacity="0.56"/>
    <text x="883" y="139" fill="#F5F7FF" font-family="'Segoe UI', Arial, sans-serif" font-size="26" font-weight="800" text-anchor="middle">1</text>
    <text x="958" y="126" fill="#14F195" font-family="'Segoe UI', Arial, sans-serif" font-size="16" font-weight="700">FORKED REPOS</text>
    <text x="958" y="152" fill="#A4C0EA" font-family="Consolas, 'Courier New', monospace" font-size="17">public forks</text>
  </g>
  <g>
    <rect x="1194" y="76" width="350" height="188" rx="24" fill="#0A1326" fill-opacity="0.84" stroke="#F472B6" stroke-opacity="0.42"/>
    <path d="M1232 110H1306L1326 130L1306 150H1232L1212 130L1232 110Z" fill="#111D35" stroke="#F472B6" stroke-opacity="0.56"/>
    <text x="1269" y="139" fill="#F5F7FF" font-family="'Segoe UI', Arial, sans-serif" font-size="26" font-weight="800" text-anchor="middle">5</text>
    <text x="1344" y="126" fill="#F472B6" font-family="'Segoe UI', Arial, sans-serif" font-size="16" font-weight="700">LANGUAGES</text>
    <text x="1344" y="152" fill="#A4C0EA" font-family="Consolas, 'Courier New', monospace" font-size="17">detected by GitHub</text>
  </g>
</svg>
